HIERARCHY
ROOT hip
{
  OFFSET 0.0 0.0 0.0
  CHANNELS 6 Xposition Yposition Zposition Zrotation Yrotation Xrotation
  JOINT torso
  {
    OFFSET 0.0 0.0 0.0
    CHANNELS 3 Zrotation Xrotation Yrotation
    JOINT neck
    {
      OFFSET -8.600829999999974 327.7417449999999 60.895874000000276
      CHANNELS 3 Zrotation Xrotation Yrotation
      JOINT head
      {
        OFFSET 0.7211610000001087 266.848846 239.12060599999995
        CHANNELS 3 Zrotation Xrotation Yrotation
        End Site
        {
          OFFSET 0.0 0.0 0.0
        }
      }
    }
    JOINT left_collar
    {
      OFFSET -8.600829999999974 327.7417449999999 60.895874000000276
      CHANNELS 3 Zrotation Xrotation Yrotation
      JOINT left_upper_arm
      {
        OFFSET -122.29599000000002 -5.21875 31.800903999999946
        CHANNELS 3 Zrotation Xrotation Yrotation
        JOINT left_forearm
        {
          OFFSET -195.94708199999997 63.423126000000025 226.99352999999996
          CHANNELS 3 Zrotation Xrotation Yrotation
          JOINT left_hand
          {
            OFFSET -232.19226099999992 28.282164999999964 80.86950699999989
            CHANNELS 3 Zrotation Xrotation Yrotation
            End Site
            {
              OFFSET 0.0 0.0 0.0
            }
          }
        }
      }
    }
    JOINT right_collar
    {
      OFFSET -8.600829999999974 327.7417449999999 60.895874000000276
      CHANNELS 3 Zrotation Xrotation Yrotation
      JOINT right_upper_arm
      {
        OFFSET 168.41261300000002 -11.913361000000066 -9.389160000000174
        CHANNELS 3 Zrotation Xrotation Yrotation
        JOINT right_forearm
        {
          OFFSET 213.49279800000005 104.82293699999997 83.52258300000017
          CHANNELS 3 Zrotation Xrotation Yrotation
          JOINT right_hand
          {
            OFFSET 222.067185 62.005675999999994 -110.52026300000034
            CHANNELS 3 Zrotation Xrotation Yrotation
            End Site
            {
              OFFSET 0.0 0.0 0.0
            }
          }
        }
      }
    }
  }
}
MOTION
Frames: 11
Frame Time: 0.01
-391.4724496410797 125.80834233417694 419.5467778913487 3.4906524480151706 -22.285147411733703 -27.771070526338313 -1.918499831396513 7.492491447603577 0.43284621654344696 -1.610671960106609 -0.7815917529082025 1.4476308309292327 0.0 0.0 0.0 0.07870946756228883 -0.28256906851802877 7.084525086765332 40.43855283641712 63.15400363240263 -38.096764949737135 18.657773053693287 12.93015399601312 -70.93190745179871 0.0 0.0 0.0 -7.781667071240753 -1.1456727897129273 -5.0623900643453466 -82.3127121433285 30.74857388936347 11.869834114858275 -31.739639709348243 -14.763388047726867 2.7194099406732 0.0 0.0 0.0
-391.4660623323785 125.69946309619797 419.4733887403307 3.5442569737677716 -22.347025581471513 -27.788594001369457 -1.9379185600694382 7.548428750462609 0.43577971220336076 -1.6315307294897459 -0.7973573664151107 1.4664379311680926 0.0 0.0 0.0 0.22527827299996703 -0.2538564602790495 7.0811713304655575 43.494128586764575 64.0657423771076 -33.967815206648076 21.798410399677874 16.38477470067563 -67.17257012498078 0.0 0.0 0.0 -7.768071928298654 -1.143880416014597 -5.0594884883151074 -82.34516886640395 30.742128488902335 11.808890069419194 -31.788875662152922 -14.782904263620189 2.742835030006607 0.0 0.0 0.0
-391.45658368531537 125.59791830302542 419.3951728810656 3.596322434068207 -22.41291158050151 -27.80420652897334 -1.9583190169621827 7.609118283906955 0.4388606513330016 -1.649115751598898 -0.8101809007358336 1.4822916124211962 0.0 0.0 0.0 0.3756982268828057 -0.22440737280182915 7.078411153969281 46.659442232779554 64.8178010366938 -29.740007885405443 25.10022193295019 19.386215902005052 -62.83202659771862 0.0 0.0 0.0 -7.753629260507918 -1.142453286995886 -5.059798949207311 -82.37855400257183 30.73606295133072 11.74798806700166 -31.83818916822416 -14.802540486616827 2.764523152668525 0.0 0.0 0.0
-391.4424836798348 125.50467444099486 419.31244623481825 3.6464494882546687 -22.48223414239429 -27.817411581112562 -1.979531480613874 7.674104507920461 0.44206012036636383 -1.6630606810680972 -0.8198807719884268 1.4948615646843049 0.0 0.0 0.0 0.5284244569053926 -0.19449689535040926 7.075639793465944 49.85382145182715 65.40758523898886 -25.505646439723478 28.490227555434245 21.844883579238598 -58.02510933726846 0.0 0.0 0.0 -7.738604633225718 -1.1414765755676168 -5.063744903747024 -82.41240230830003 30.730419699581372 11.687852652079501 -31.88729895026951 -14.82218516068677 2.784385071541318 0.0 0.0 0.0
-391.42243247339945 125.42054057256526 419.22558593068135 3.694264432048771 -22.55420764790931 -27.827930407900716 -2.001336865746359 7.74274720001348 0.445342033090471 -1.6731847166585636 -0.8264437819142477 1.5039850196373676 0.0 0.0 0.0 0.6818738163908881 -0.16441245199440735 7.07241801497646 52.99336670662233 65.84126984416817 -21.359254499549575 31.864762513987323 23.713639047131164 -52.90870077846183 0.0 0.0 0.0 -7.723254373315848 -1.1409914344111303 -5.071444458394086 -82.44624173284362 30.725203280593583 11.629098608468686 -31.93595001728156 -14.841737589333174 2.8023428566101387 0.0 0.0 0.0
-391.3953484526557 125.3461658224825 419.1350219602001 3.7394163715683653 -22.627837259991008 -27.835735790355255 -2.0234646687040687 7.814222966970376 0.44866331833303524 -1.6795052969098363 -0.8300240735044685 1.5096781869178006 0.0 0.0 0.0 0.83443730650917 -0.1344546481341918 7.068515704628662 55.99962182860723 66.13231418870842 -17.388720212210167 35.10403023567024 24.99335665595402 -47.664744918377615 0.0 0.0 0.0 -7.70781655263725 -1.140990781005559 -5.08268481705841 -82.47960398283514 30.720382087817438 11.57222306041439 -31.983913210297107 -14.861108209449979 2.8183210926354274 0.0 0.0 0.0
-391.3604380199537 125.28204106205031 419.04122681244127 3.781575140453109 -22.701934439492902 -27.841072994673247 -2.045594449253468 7.887535090896122 0.451974615385824 -1.682241728387857 -0.8309347901612832 1.5121394803389132 0.0 0.0 0.0 0.9844960393876961 -0.1049373043931526 7.063943732265255 58.80679949818115 66.29935952646848 -13.667970994288599 38.0934491551442 25.730028926560294 -42.476105343157506 0.0 0.0 0.0 -7.692502970456286 -1.1414175105337423 -5.096913240885397 -82.51203536831807 30.715892034358045 11.517603320817047 -32.03098322672175 -14.880218206978654 2.8322387087913516 0.0 0.0 0.0
-391.31722540241094 125.22850426721328 418.94470430152035 3.820430078052607 -22.77514304313742 -27.84446501506594 -2.067360919023806 7.961531870988855 0.4552214332806106 -1.6818087756182123 -0.8296324414608062 1.511743663483628 0.0 0.0 0.0 1.1304406069674597 -0.07618628739699775 7.0589704627330345 61.36610868052767 66.36392184748979 -10.252628110668086 40.74403970331948 26.003912935451723 -37.50306272484979 0.0 0.0 0.0 -7.6774927442500385 -1.1421655044172874 -5.113247010639432 -82.54310747384386 30.711642194583515 11.465501041882584 -32.07697499125749 -14.898998367282907 2.8440021870845733 0.0 0.0 0.0
-391.2655709836691 125.18574886980342 418.8459788884489 3.8556897557548657 -22.84597562828034 -27.84670025027936 -2.088362509366338 8.034933200158017 0.4583456980257555 -1.67879983068378 -0.8266943532874959 1.5090265808645664 0.0 0.0 0.0 1.2706934027134762 -0.04853680637563051 7.054120337694948 63.64682181945971 66.34827498203826 -7.178992624843527 43.004640047857265 25.914207002097346 -32.86787561391986 0.0 0.0 0.0 -7.662928006410768 -1.1430836350557505 -5.130503718976805 -82.57242721295482 30.707522317939894 11.416072850961545 -32.12171838554072 -14.917387117259162 2.853500798370065 0.0 0.0 0.0
-391.2056769516256 125.15383428810829 418.74558668797687 3.8870826870831108 -22.91285892610973 -27.84880215287406 -2.108173066596058 8.106364637783708 0.4612875842846965 -1.6739599877611826 -0.822789985973259 1.5046607826414857 0.0 0.0 0.0 1.4037331804524844 -0.022328954612781716 7.0501533943958785 65.63468757267094 66.27378948767884 -4.465741690105069 44.86334223403899 25.56385583367393 -28.650322674072594 0.0 0.0 0.0 -7.648912010896248 -1.1439827512226401 -5.147251724460469 -82.599645887203 30.70341198362427 11.369387170925584 -32.16505152178798 -14.935327799091395 2.8606043213711994 0.0 0.0 0.0
-391.13807943304755 125.13269773726002 418.6440690923423 3.914358956301441 -22.974186744405028 -27.851981903906715 -2.126356059476835 8.174397726835744 0.4639875048401999 -1.6681500924208683 -0.8186472978790532 1.499423023575252 0.0 0.0 0.0 1.528120937756467 0.0020985702827549407 7.04802620986886 67.32876603207762 66.15982696684486 -2.11724076162418 46.340473839704565 25.04794881704638 -24.89220403429999 0.0 0.0 0.0 -7.635509722220499 -1.144645391365626 -5.161878961318121 -82.62446694996892 30.699191013618073 11.325446385095782 -32.206812933573076 -14.952765307988901 2.8651634733660143 0.0 0.0 0.0
